<svg xmlns="http://www.w3.org/2000/svg" width="15" height="19" viewBox="0 0 15 19">
  <defs>
    <style>
      .cls-1 {
        fill: #51296f;
        fill-rule: evenodd;
      }
    </style>
  </defs>
  <path id="Pointer" class="cls-1" d="M912.578,75.18a5.8,5.8,0,0,1,6.178,6.059c0,2.657-1.993,6.184-5.927,10.484a0.587,0.587,0,0,1-.082.063,0.652,0.652,0,0,1-.082-0.063l-0.328-.357c-2.566-2.8-6.081-6.627-6.081-10.126a6.278,6.278,0,0,1,6.322-6.059m0-1.187a7.516,7.516,0,0,0-7.571,7.246c0,4.115,4.024,8.323,6.73,11.28a1.553,1.553,0,0,0,.987.473h0.048a1.549,1.549,0,0,0,.985-0.473c2.54-2.774,6.25-7.349,6.25-11.28a7.014,7.014,0,0,0-7.429-7.246h0ZM912.5,79a2.5,2.5,0,0,1,.029,4.995A2.543,2.543,0,0,1,910,81.484,2.494,2.494,0,0,1,912.5,79" transform="translate(-905 -74)"/>
</svg>
